<svg xmlns="http://www.w3.org/2000/svg" width="198.822" height="46.647" viewBox="0 0 198.822 46.647">
  <g id="Grupo_540" data-name="Grupo 540" transform="translate(-711.037 -482.185)">
    <path id="Caminho_1260" data-name="Caminho 1260" d="M30.976-54.168a21.56,21.56,0,0,0,15.442-6.215c.449-.449.577-.9.064-1.346l-3.268-3.588a.878.878,0,0,0-1.346,0,15.965,15.965,0,0,1-10.829,4.1c-8.971,0-15.762-6.728-15.762-16.019S22.069-93.318,31.04-93.318a15.965,15.965,0,0,1,10.829,4.1.878.878,0,0,0,1.346-.064l3.268-3.524a.907.907,0,0,0-.064-1.41,21.78,21.78,0,0,0-15.442-6.151c-13.007,0-22.939,10.06-22.939,23.131A22.588,22.588,0,0,0,30.976-54.168Zm32.358-.064c9.291,0,16.211-7.176,16.211-16.467s-6.92-16.467-16.211-16.467c-9.355,0-16.275,7.176-16.275,16.467S53.979-54.232,63.334-54.232ZM53.723-70.7c0-6.023,4.165-10.06,9.611-10.06,5.382,0,9.547,4.037,9.547,10.06s-4.165,10.06-9.547,10.06C57.887-60.64,53.723-64.677,53.723-70.7ZM96.2-54.232c5.126,0,8.842-2.243,11.085-5.895l.128,4.165a.86.86,0,0,0,.9.961h4.677a.86.86,0,0,0,.9-.961V-99.854a.86.86,0,0,0-.9-.961h-5.126a.86.86,0,0,0-.9.961v18.133c-2.243-3.4-5.831-5.446-10.765-5.446-8.971,0-15.122,7.176-15.122,16.467C81.083-61.345,87.234-54.232,96.2-54.232ZM87.811-70.7c0-6.023,4.1-10.124,9.739-10.124,5.575,0,9.483,4.1,9.483,10.188,0,6.023-3.909,10.06-9.483,10.06C91.911-60.576,87.811-64.613,87.811-70.7Z" transform="translate(703 583)" fill="#f5f5f5"/>
    <path id="Caminho_1261" data-name="Caminho 1261" d="M-66.517-54.232c5.126,0,8.842-2.243,11.085-5.895l.128,4.165a.86.86,0,0,0,.9.961h4.677a.86.86,0,0,0,.9-.961V-99.854a.86.86,0,0,0-.9-.961h-5.126a.86.86,0,0,0-.9.961v18.133c-2.243-3.4-5.831-5.446-10.765-5.446-8.971,0-15.122,7.176-15.122,16.467C-81.639-61.345-75.488-54.232-66.517-54.232ZM-74.911-70.7c0-6.023,4.1-10.124,9.739-10.124,5.575,0,9.483,4.1,9.483,10.188,0,6.023-3.909,10.06-9.483,10.06C-70.81-60.576-74.911-64.613-74.911-70.7Z" transform="translate(958.692 583)" fill="#f5f5f5"/>
    <path id="Caminho_1259" data-name="Caminho 1259" d="M-7783.051-8688.342a15.555,15.555,0,0,1-5.334-3.512,15.527,15.527,0,0,1-3.412-5.267,17.79,17.79,0,0,1-1.2-6.538,18,18,0,0,1,1.15-6.447,15.442,15.442,0,0,1,3.247-5.184,14.776,14.776,0,0,1,5.037-3.454,16.845,16.845,0,0,1,6.521-1.255,15.832,15.832,0,0,1,6.3,1.234,13.588,13.588,0,0,1,4.669,3.3,13.725,13.725,0,0,1,1.054,1.291,15.468,15.468,0,0,1,12.52-5.825c9.419,0,14.866,7.112,14.866,14.93,0,2.756-.577,4.1-2.948,4.1h-21.145c.834,5,4.549,8.33,10.765,8.33a13.779,13.779,0,0,0,8.074-2.436.678.678,0,0,1,1.025.193l1.794,2.434c.385.514.256.9-.256,1.41-2.755,2.691-6.792,3.973-11.214,3.973-9.244,0-15.571-5.887-16.725-13.9h-18c.883,5.292,4.807,8.328,10.764,8.328a13.732,13.732,0,0,0,6.188-1.35,18.2,18.2,0,0,0,2.965,4.183,16.789,16.789,0,0,1-9.728,2.743A18.719,18.719,0,0,1-7783.051-8688.342Zm-3.284-17.624h18.005c-.38-5.06-3.719-8.2-8.715-8.2C-7782.088-8714.167-7785.649-8711.025-7786.335-8705.966Zm24.539,0h18c-.384-5.125-3.78-8.2-8.714-8.2S-7761.092-8711.156-7761.8-8705.967Z" transform="translate(8613.028 9215.833)" fill="#fcc670"/>
  </g>
</svg>
